<svg xmlns="http://www.w3.org/2000/svg" xmlns:xlink="http://www.w3.org/1999/xlink" version="1.1" x="0px" y="0px" viewBox="0 0 512 640" style="enable-background:new 0 0 512 512;" xml:space="preserve"><g><g><g><path d="M256,481.736c-4.1,0-7.783-2.502-9.295-6.313L191.711,336.81c-27.398-12.024-50.771-31.391-67.785-56.216     C105.656,253.935,96,222.699,96,190.264c0-88.224,71.775-160,160-160c88.224,0,160,71.776,160,160     c0,32.436-9.656,63.671-27.926,90.33c-17.014,24.825-40.387,44.191-67.785,56.216l-54.994,138.614     C263.783,479.234,260.099,481.736,256,481.736z M256,50.264c-77.196,0-140,62.804-140,140     c0,57.212,34.241,108.125,87.234,129.706c2.523,1.028,4.519,3.041,5.523,5.574L256,444.62l47.242-119.076     c1.005-2.533,3-4.546,5.523-5.574C361.759,298.389,396,247.476,396,190.264C396,113.067,333.196,50.264,256,50.264z"/></g><g><path d="M256,280.264c-49.626,0-90-40.374-90-90s40.374-90,90-90s90,40.374,90,90S305.626,280.264,256,280.264z M256,120.264     c-38.599,0-70,31.402-70,70s31.401,70,70,70c38.598,0,70-31.402,70-70S294.598,120.264,256,120.264z"/></g></g></g><text x="0" y="527" fill="#000000" font-size="5px" font-weight="bold" font-family="'Helvetica Neue', Helvetica, Arial-Unicode, Arial, Sans-serif">Created by Flatart</text><text x="0" y="532" fill="#000000" font-size="5px" font-weight="bold" font-family="'Helvetica Neue', Helvetica, Arial-Unicode, Arial, Sans-serif">from the Noun Project</text></svg>