<svg xmlns="http://www.w3.org/2000/svg" viewBox="0 0 32 40" x="0px" y="0px"><title>geography</title><g data-name="Layer 2"><path d="M29.5,28H2.5a.5.5,0,0,1-.5-.5V8.5A.5.5,0,0,1,2.5,8h27a.5.5,0,0,1,.5.5v19A.5.5,0,0,1,29.5,28ZM3,27H29V9H3Z"/><path d="M10.94,26.15a7.09,7.09,0,0,1-2.1-.43A3.87,3.87,0,0,0,8,25.5c-1.5,0-1.5-2.28-1.5-3.5-.13-.34-1.86-1.07-3.62-1.52a.49.49,0,1,1,.24-1c1.64.4,4.38,1.27,4.38,2.48,0,2.18.31,2.5.5,2.5a4.13,4.13,0,0,1,1.15.27c1.62.52,2.81.76,3.38-.93A7.42,7.42,0,0,0,13,21.13a4.45,4.45,0,0,1,.55-2.35,20.65,20.65,0,0,1,1.12-2A4.28,4.28,0,0,0,15.5,15c0-.78-.94-1.66-2.72-2.55A5.69,5.69,0,0,1,10,9.14a.5.5,0,0,1,1-.28,4.78,4.78,0,0,0,2.3,2.69c2.21,1.11,3.28,2.23,3.28,3.45a4.76,4.76,0,0,1-1,2.35c-.33.53-.7,1.13-1.07,1.87A3.45,3.45,0,0,0,14,21.13a8.3,8.3,0,0,1-.53,3A2.51,2.51,0,0,1,10.94,26.15Z"/><path d="M23.75,27.5a.5.5,0,0,1-.43-.25,29.87,29.87,0,0,0-2.67-3.9,2.35,2.35,0,0,1,0-3.7c.85-.86.85-.86.85-2.65a6.05,6.05,0,0,0-.59-2.5A4,4,0,0,1,20.5,13a1.12,1.12,0,0,1,.55-1c.84-.52,2.52-.31,4.17.52A9.64,9.64,0,0,0,29,13.5a.5.5,0,0,1,0,1,10.36,10.36,0,0,1-4.22-1.05c-1.55-.78-2.83-.8-3.2-.57-.08,0-.08.08-.08.12a3.39,3.39,0,0,0,.33,1.12A7,7,0,0,1,22.5,17c0,2,0,2.21-1.15,3.35a1.4,1.4,0,0,0,0,2.3,27.79,27.79,0,0,1,2.83,4.1.49.49,0,0,1-.18.68A.45.45,0,0,1,23.75,27.5Z"/><path d="M29.5,9a.5.5,0,0,1-.5-.5V7H3V8.5a.5.5,0,0,1-1,0v-2A.5.5,0,0,1,2.5,6h27a.5.5,0,0,1,.5.5v2A.5.5,0,0,1,29.5,9Z"/><path d="M19.5,7a.51.51,0,0,1-.4-.2L16.25,3h-.5L12.9,6.8a.5.5,0,0,1-.8-.6l3-4a.48.48,0,0,1,.4-.2h1a.48.48,0,0,1,.4.2l3,4a.5.5,0,0,1-.1.7A.49.49,0,0,1,19.5,7Z"/></g><text x="0" y="47" fill="#000000" font-size="5px" font-weight="bold" font-family="'Helvetica Neue', Helvetica, Arial-Unicode, Arial, Sans-serif">Created by Mario Köstl</text><text x="0" y="52" fill="#000000" font-size="5px" font-weight="bold" font-family="'Helvetica Neue', Helvetica, Arial-Unicode, Arial, Sans-serif">from the Noun Project</text></svg>