<svg xmlns="http://www.w3.org/2000/svg" xmlns:xlink="http://www.w3.org/1999/xlink" version="1.1" x="0px" y="0px" viewBox="0 0 32 40" enable-background="new 0 0 32 32" xml:space="preserve"><path d="M29.29,13.002L18.238,3.136c-1.231-1.099-3.245-1.099-4.476,0L2.71,13.002C1.479,14.101,1.823,15,3.472,15h1.403v11.688  c0,1.656,1.343,3,3,3h4.666v-5.216c0-1.91,1.549-3.458,3.459-3.458s3.458,1.548,3.458,3.458v5.216h4.667c1.656,0,3-1.344,3-3V15  h1.402C30.178,15,30.52,14.101,29.29,13.002z"/><text x="0" y="47" fill="#000000" font-size="5px" font-weight="bold" font-family="'Helvetica Neue', Helvetica, Arial-Unicode, Arial, Sans-serif">Created by DC Icons</text><text x="0" y="52" fill="#000000" font-size="5px" font-weight="bold" font-family="'Helvetica Neue', Helvetica, Arial-Unicode, Arial, Sans-serif">from the Noun Project</text></svg>